<?xml version="1.0"?>
<svg xmlns="http://www.w3.org/2000/svg" xmlns:xlink="http://www.w3.org/1999/xlink" xmlns:svgjs="http://svgjs.com/svgjs" version="1.1" width="512" height="512" x="0" y="0" viewBox="0 0 510 510" style="enable-background:new 0 0 512 512" xml:space="preserve" class=""><g><path xmlns="http://www.w3.org/2000/svg" d="m426.833 305.02-78.887-30.345c5.365-25.373.309-52.864-16.036-75.372l82.441-82.441c41.65 25.341 95.649-4.717 95.649-53.862 0-34.738-28.262-63-63-63-49.186 0-79.178 54.041-53.862 95.649l-82.441 82.441c-35.395-25.703-83.92-23.944-117.421 4.756l-41.956-35.664c20.932-41.661-9.507-91.182-56.32-91.182-34.738 0-63 28.262-63 63 0 51.559 58.663 80.901 99.88 51.03l41.949 35.658c-19.843 32.542-18.273 73.978 4.262 105.009l-54.871 54.87c-51.898-35.184-123.22 1.91-123.22 65.433 0 43.561 35.439 79 79 79 63.47 0 100.655-71.268 65.432-123.219l54.871-54.87c22.995 16.699 51.707 21.924 78.439 15.332l34.103 80.61c-32.259 28.625-11.964 82.147 31.155 82.147 25.916 0 47-21.084 47-47 0-26.931-22.89-48.919-50.533-46.853l-34.11-80.627c13.071-8.204 24.014-19.498 31.793-32.854l78.901 30.351c-1.124 26.878 20.434 48.983 46.949 48.983 25.916 0 47-21.084 47-47 0-43.594-54.986-63.918-83.167-29.98z" fill="#e94b88" data-original="#000000" style="" class=""/></g></svg>
